<svg width="560" height="480" viewBox="0 0 560 480" fill="none" xmlns="http://www.w3.org/2000/svg">
  <defs>
    <linearGradient id="aboutGradient" x1="0" y1="0" x2="560" y2="480" gradientUnits="userSpaceOnUse">
      <stop offset="0" stop-color="#14B8A6" stop-opacity="0.35"/>
      <stop offset="1" stop-color="#38BDF8" stop-opacity="0.35"/>
    </linearGradient>
  </defs>

  <rect x="60" y="40" width="440" height="400" rx="24" fill="#16213A" stroke="#1B2942" stroke-width="1.5"/>
  <rect x="60" y="40" width="440" height="56" rx="24" fill="url(#aboutGradient)"/>
  <circle cx="92" cy="68" r="6" fill="#14B8A6"/>
  <circle cx="114" cy="68" r="6" fill="#38BDF8"/>
  <circle cx="136" cy="68" r="6" fill="#94A3B8"/>

  <!-- Spreadsheet rows representing a cleaned prospect list -->
  <g stroke="#1B2942" stroke-width="1">
    <rect x="90" y="120" width="380" height="270" rx="8" fill="#0F172A"/>
  </g>

  <g fill="none" stroke="#38BDF8" stroke-width="1.5" opacity="0.6">
    <line x1="90" y1="160" x2="470" y2="160"/>
    <line x1="90" y1="200" x2="470" y2="200"/>
    <line x1="90" y1="240" x2="470" y2="240"/>
    <line x1="90" y1="280" x2="470" y2="280"/>
    <line x1="90" y1="320" x2="470" y2="320"/>
    <line x1="90" y1="360" x2="470" y2="360"/>
  </g>

  <g fill="#14B8A6" opacity="0.85">
    <rect x="106" y="140" width="120" height="10" rx="4"/>
    <rect x="106" y="180" width="90" height="10" rx="4"/>
    <rect x="106" y="220" width="140" height="10" rx="4"/>
    <rect x="106" y="260" width="100" height="10" rx="4"/>
    <rect x="106" y="300" width="130" height="10" rx="4"/>
    <rect x="106" y="340" width="80" height="10" rx="4"/>
  </g>

  <g fill="#38BDF8" opacity="0.7">
    <rect x="330" y="140" width="110" height="10" rx="4"/>
    <rect x="300" y="180" width="140" height="10" rx="4"/>
    <rect x="320" y="220" width="120" height="10" rx="4"/>
    <rect x="310" y="260" width="130" height="10" rx="4"/>
    <rect x="330" y="300" width="110" height="10" rx="4"/>
    <rect x="300" y="340" width="140" height="10" rx="4"/>
  </g>

  <!-- Verified badge -->
  <circle cx="470" cy="120" r="34" fill="#0F172A" stroke="#14B8A6" stroke-width="2"/>
  <path d="M456 120l10 10 20-20" stroke="#14B8A6" stroke-width="3" stroke-linecap="round" stroke-linejoin="round" fill="none"/>
</svg>
